<?xml version="1.0" encoding="iso-8859-1"?>
<!-- Uploaded to: SVG Repo, www.svgrepo.com, Generator: SVG Repo Mixer Tools -->
<svg fill="#000000" height="800px" width="800px" version="1.1" id="Capa_1" xmlns="http://www.w3.org/2000/svg" xmlns:xlink="http://www.w3.org/1999/xlink" 
	 viewBox="0 0 591.628 591.628" xml:space="preserve">
<g>
	<g>
		<path d="M589.264,248.69c-1.836-2.448-4.896-3.876-7.956-3.876H505.42l-96.288-154.02c11.628-9.384,19.176-23.664,19.176-39.78
			c0-28.152-22.848-51-51-51s-51,22.848-51,51s22.848,51,51,51c4.692,0,9.18-0.612,13.668-1.836l90.372,144.636h-371.28
			l90.372-144.636c4.284,1.224,8.976,1.836,13.668,1.836c28.152,0,51-22.848,51-51s-22.848-51-51-51s-51,22.848-51,51
			c0,16.116,7.548,30.396,19.176,39.78l-96.288,154.02H10.108c-3.06,0-6.12,1.428-7.956,3.876c-1.836,2.448-2.652,5.712-1.836,8.772
			l81.6,326.4c1.224,4.488,5.304,7.752,9.996,7.752h408c4.692,0,8.772-3.264,9.996-7.752l81.6-326.4
			C591.916,254.402,591.304,251.138,589.264,248.69z M346.708,51.014c0-16.932,13.668-30.6,30.6-30.6s30.6,13.668,30.6,30.6
			s-13.668,30.6-30.6,30.6S346.708,67.946,346.708,51.014z M214.108,20.414c16.932,0,30.6,13.668,30.6,30.6s-13.668,30.6-30.6,30.6
			s-30.6-13.668-30.6-30.6S197.176,20.414,214.108,20.414z M491.752,571.214H99.664l-76.5-306h68.544l0,0l0,0h408l0,0l0,0h68.544
			L491.752,571.214z"/>
		<path d="M197.788,60.194c2.856,0,5.1-2.244,5.1-5.1c0-8.364,6.936-15.3,15.3-15.3c2.856,0,5.1-2.244,5.1-5.1
			c0-2.856-2.244-5.1-5.1-5.1c-14.076,0-25.5,11.424-25.5,25.5C192.688,57.95,194.932,60.194,197.788,60.194z"/>
		<path d="M381.388,29.594c-14.076,0-25.5,11.424-25.5,25.5c0,2.856,2.244,5.1,5.1,5.1s5.1-2.244,5.1-5.1
			c0-8.364,6.936-15.3,15.3-15.3c2.856,0,5.1-2.244,5.1-5.1C386.488,31.838,384.244,29.594,381.388,29.594z"/>
		<path d="M76.204,294.386c-0.816-2.652-3.468-4.284-6.324-3.672c-2.652,0.816-4.284,3.468-3.672,6.324l61.2,224.4
			c0.612,2.244,2.652,3.672,4.896,3.672c0.408,0,0.816,0,1.428-0.204c2.652-0.816,4.284-3.468,3.672-6.324L76.204,294.386z"/>
		<path d="M454.012,518.786c-0.816,2.652,0.816,5.508,3.672,6.324c0.408,0.204,0.816,0.204,1.428,0.204
			c2.244,0,4.284-1.428,4.896-3.672l61.2-224.4c0.816-2.652-0.816-5.508-3.672-6.324c-2.652-0.816-5.508,0.816-6.324,3.672
			L454.012,518.786z"/>
		<path d="M157.804,294.386c-0.816-2.652-3.468-4.284-6.324-3.672c-2.652,0.816-4.284,3.468-3.672,6.324l61.2,224.4
			c0.612,2.244,2.652,3.672,4.896,3.672c0.408,0,0.816,0,1.428-0.204c2.652-0.816,4.284-3.468,3.672-6.324L157.804,294.386z"/>
		<path d="M439.936,290.918c-2.652-0.816-5.508,0.816-6.324,3.672l-61.2,224.4c-0.816,2.652,0.816,5.508,3.672,6.324
			c0.408,0.204,0.816,0.204,1.428,0.204c2.244,0,4.284-1.428,4.896-3.672l61.2-224.4
			C444.22,294.386,442.588,291.734,439.936,290.918z"/>
	</g>
</g>
</svg>